<svg width="133" height="176" viewBox="0 0 133 176" fill="none" xmlns="http://www.w3.org/2000/svg">
<path d="M23.6197 174.38L59.1197 111.88L109.12 175.88L126.12 160.88L127.12 149.88L77.1197 83.88L90.6197 54.88C93.2205 50.8932 93.6606 43.4916 93.6197 42.8801C93.5787 42.2685 90.2635 33.2172 89.6197 31.8801C88.9758 30.5429 74.2479 12.6752 61.1197 6.38002C50.8178 4.24132 45.8131 4.35637 39.1197 8.38002C34.7801 11.6286 32.3802 14.9819 28.1197 21.8801C24.5751 29.8135 22.7825 34.3049 22.1197 42.8801C26.584 59.0972 30.1487 67.7654 38.6197 82.3801C18.0153 104.247 5.21056 117.385 0.119676 128.38C-1.28374 139.991 9.84406 153.655 23.6197 174.38Z" fill="black"/>
<path d="M39 28.5C45.523 43.328 50.2072 50.8132 60 63C66.2882 49.1706 68.7144 41.0165 69 25C56.0315 20.1287 49.4543 20.8516 39 28.5Z" fill="white"/>
<path d="M64.3331 57.6628C71.094 42.2046 73.812 33.5741 73.5132 18.355C61.2392 13.7287 54.5467 13.5131 43.3081 21.9236C48.3724 36.4486 53.1104 43.5554 62.9936 55.4487L41.3524 75.1436C34.6783 61.4503 31.1129 53.5445 25.9768 37.8633C27.8725 24.5799 30.7309 18.0643 38.1791 7.66309C44.6653 -0.0611587 53.2377 -1.37734 65.3643 1.20146C74.8937 6.17291 81.1352 11.8437 93.6785 26.5028C95.8031 30.5034 96.7469 32.8306 98.0491 37.1111C98.8838 43.7263 91.3794 58.1867 80.4512 80.6651L64.3331 57.6628Z" fill="url(#paint0_linear_80_45)"/>
<path d="M49.8644 69.166C30.7956 91.0522 4.28802 116.669 4.00715 124.311C3.72627 131.952 11.725 147.895 27.885 169.41L68.4187 98.2663L49.8644 69.166Z" fill="#FF0000"/>
<path d="M57.3866 49.7906C61.3867 49.7904 105.735 112.497 131.514 144.796C132.924 149.339 132.43 151.387 130.982 154.818C129.534 158.25 113.15 170.491 113.15 170.491C113.15 170.491 33.3844 71.7955 37.8855 66.2931C42.3866 60.7906 53.3865 49.7907 57.3866 49.7906Z" fill="url(#paint1_linear_80_45)"/>
<defs>
<linearGradient id="paint0_linear_80_45" x1="141.177" y1="189.104" x2="44.1414" y2="165.846" gradientUnits="userSpaceOnUse">
<stop stop-color="#FF0000"/>
<stop offset="1" stop-color="#F8D41A"/>
</linearGradient>
<linearGradient id="paint1_linear_80_45" x1="28.5731" y1="44.6707" x2="118.497" y2="187.443" gradientUnits="userSpaceOnUse">
<stop offset="0.111667" stop-color="#F8D41A"/>
<stop offset="0.196667" stop-color="#EDD023"/>
<stop offset="0.48712" stop-color="#227DE9"/>
</linearGradient>
</defs>
</svg>
