<svg width="898" height="91" viewBox="0 0 898 91" fill="none" xmlns="http://www.w3.org/2000/svg">
<g opacity="0.6">
<path d="M46.6269 63C49.4882 63 51.8077 65.3505 51.8077 68.25C51.8077 71.1495 49.4882 73.5 46.6269 73.5C46.0214 73.5 45.4401 73.3947 44.9 73.2013V91H89.8V73.2013C89.2599 73.3947 88.6786 73.5 88.0731 73.5C85.2118 73.5 82.8923 71.1495 82.8923 68.25C82.8923 65.3505 85.2118 63 88.0731 63C88.6786 63 89.2599 63.1053 89.8 63.2987V45.5H72.236C72.4269 44.9526 72.5308 44.3636 72.5308 43.75C72.5308 40.8505 70.2113 38.5 67.35 38.5C64.4887 38.5 62.1692 40.8505 62.1692 43.75C62.1692 44.3636 62.2731 44.9526 62.464 45.5H44.9V63.2987C45.4401 63.1053 46.0214 63 46.6269 63Z" fill="#E2F410"/>
<path d="M27.336 45.5C27.5269 44.9526 27.6308 44.3636 27.6308 43.75C27.6308 40.8505 25.3113 38.5 22.45 38.5C19.5887 38.5 17.2692 40.8505 17.2692 43.75C17.2692 44.3636 17.3731 44.9526 17.564 45.5H0V91H44.9V73.2013C45.4401 73.3947 46.0214 73.5 46.6269 73.5C49.4882 73.5 51.8077 71.1495 51.8077 68.25C51.8077 65.3505 49.4882 63 46.6269 63C46.0214 63 45.4401 63.1053 44.9 63.2987V45.5H27.336Z" fill="#0EF417"/>
<path d="M117.431 43.75C117.431 44.3636 117.327 44.9526 117.136 45.5H134.7V63.2987C134.16 63.1053 133.579 63 132.973 63C130.112 63 127.792 65.3505 127.792 68.25C127.792 71.1495 130.112 73.5 132.973 73.5C133.579 73.5 134.16 73.3947 134.7 73.2013V91H89.8V73.2013C89.2599 73.3947 88.6786 73.5 88.0731 73.5C85.2118 73.5 82.8923 71.1495 82.8923 68.25C82.8923 65.3505 85.2118 63 88.0731 63C88.6786 63 89.2599 63.1053 89.8 63.2987V45.5H107.364C107.173 44.9526 107.069 44.3636 107.069 43.75C107.069 40.8505 109.389 38.5 112.25 38.5C115.111 38.5 117.431 40.8505 117.431 43.75Z" fill="#FF0000"/>
<path d="M162.331 43.75C162.331 44.3636 162.227 44.9526 162.036 45.5H179.6V63.2987C179.06 63.1053 178.479 63 177.873 63C175.012 63 172.692 65.3505 172.692 68.25C172.692 71.1495 175.012 73.5 177.873 73.5C178.479 73.5 179.06 73.3947 179.6 73.2013V91H134.7V73.2013C134.16 73.3947 133.579 73.5 132.973 73.5C130.112 73.5 127.792 71.1495 127.792 68.25C127.792 65.3505 130.112 63 132.973 63C133.579 63 134.16 63.1053 134.7 63.2987V45.5H152.264C152.073 44.9526 151.969 44.3636 151.969 43.75C151.969 40.8505 154.289 38.5 157.15 38.5C160.011 38.5 162.331 40.8505 162.331 43.75Z" fill="#0B06F0"/>
<path d="M202.05 52.5C204.911 52.5 207.231 50.1495 207.231 47.25C207.231 46.6364 207.127 46.0474 206.936 45.5H224.5V63.2987C223.96 63.1053 223.379 63 222.773 63C219.912 63 217.592 65.3505 217.592 68.25C217.592 71.1495 219.912 73.5 222.773 73.5C223.379 73.5 223.96 73.3947 224.5 73.2013V91H179.6V73.2013C179.06 73.3947 178.479 73.5 177.873 73.5C175.012 73.5 172.692 71.1495 172.692 68.25C172.692 65.3505 175.012 63 177.873 63C178.479 63 179.06 63.1053 179.6 63.2987V45.5H197.164C196.973 46.0474 196.869 46.6364 196.869 47.25C196.869 50.1495 199.189 52.5 202.05 52.5Z" fill="#0EF417"/>
<path d="M246.95 52.5C249.811 52.5 252.131 50.1495 252.131 47.25C252.131 46.6364 252.027 46.0474 251.836 45.5H269.4V63.2987C269.94 63.1053 270.521 63 271.127 63C273.988 63 276.308 65.3505 276.308 68.25C276.308 71.1495 273.988 73.5 271.127 73.5C270.521 73.5 269.94 73.3947 269.4 73.2013V91H224.5V73.2013C223.96 73.3947 223.379 73.5 222.773 73.5C219.912 73.5 217.592 71.1495 217.592 68.25C217.592 65.3505 219.912 63 222.773 63C223.379 63 223.96 63.1053 224.5 63.2987V45.5H242.064C241.873 46.0474 241.769 46.6364 241.769 47.25C241.769 50.1495 244.089 52.5 246.95 52.5Z" fill="#E2F410"/>
<path d="M297.031 43.75C297.031 44.3636 296.927 44.9526 296.736 45.5H314.3V63.2987C314.84 63.1053 315.421 63 316.027 63C318.888 63 321.208 65.3505 321.208 68.25C321.208 71.1495 318.888 73.5 316.027 73.5C315.421 73.5 314.84 73.3947 314.3 73.2013V91H269.4V73.2013C269.94 73.3947 270.521 73.5 271.127 73.5C273.988 73.5 276.308 71.1495 276.308 68.25C276.308 65.3505 273.988 63 271.127 63C270.521 63 269.94 63.1053 269.4 63.2987V45.5H286.964C286.773 44.9526 286.669 44.3636 286.669 43.75C286.669 40.8505 288.989 38.5 291.85 38.5C294.711 38.5 297.031 40.8505 297.031 43.75Z" fill="#FF0000"/>
<path d="M336.75 52.5C339.611 52.5 341.931 50.1495 341.931 47.25C341.931 46.6364 341.827 46.0474 341.636 45.5H359.2V63.2987C359.74 63.1053 360.321 63 360.927 63C363.788 63 366.108 65.3505 366.108 68.25C366.108 71.1495 363.788 73.5 360.927 73.5C360.321 73.5 359.74 73.3947 359.2 73.2013V91H314.3V73.2013C314.84 73.3947 315.421 73.5 316.027 73.5C318.888 73.5 321.208 71.1495 321.208 68.25C321.208 65.3505 318.888 63 316.027 63C315.421 63 314.84 63.1053 314.3 63.2987V45.5H331.864C331.673 46.0474 331.569 46.6364 331.569 47.25C331.569 50.1495 333.889 52.5 336.75 52.5Z" fill="#0B06F0"/>
<path d="M386.831 43.75C386.831 44.3636 386.727 44.9526 386.536 45.5H404.1V63.2987C404.64 63.1053 405.221 63 405.827 63C408.688 63 411.008 65.3505 411.008 68.25C411.008 71.1495 408.688 73.5 405.827 73.5C405.221 73.5 404.64 73.3947 404.1 73.2013V91H359.2V73.2013C359.74 73.3947 360.321 73.5 360.927 73.5C363.788 73.5 366.108 71.1495 366.108 68.25C366.108 65.3505 363.788 63 360.927 63C360.321 63 359.74 63.1053 359.2 63.2987V45.5H376.764C376.573 44.9526 376.469 44.3636 376.469 43.75C376.469 40.8505 378.789 38.5 381.65 38.5C384.511 38.5 386.831 40.8505 386.831 43.75Z" fill="#0EF417"/>
<path d="M431.436 45.5C431.627 44.9526 431.731 44.3636 431.731 43.75C431.731 40.8505 429.411 38.5 426.55 38.5C423.689 38.5 421.369 40.8505 421.369 43.75C421.369 44.3636 421.473 44.9526 421.664 45.5H404.1V63.2987C404.64 63.1053 405.221 63 405.827 63C408.688 63 411.008 65.3505 411.008 68.25C411.008 71.1495 408.688 73.5 405.827 73.5C405.221 73.5 404.64 73.3947 404.1 73.2013V91H449V73.2013C448.46 73.3947 447.879 73.5 447.273 73.5C444.412 73.5 442.092 71.1495 442.092 68.25C442.092 65.3505 444.412 63 447.273 63C447.879 63 448.46 63.1053 449 63.2987V45.5H431.436Z" fill="#E2F410"/>
<path d="M476.336 45.5C476.527 44.9526 476.631 44.3636 476.631 43.75C476.631 40.8505 474.311 38.5 471.45 38.5C468.589 38.5 466.269 40.8505 466.269 43.75C466.269 44.3636 466.373 44.9526 466.564 45.5H449V63.2987C448.46 63.1053 447.879 63 447.273 63C444.412 63 442.092 65.3505 442.092 68.25C442.092 71.1495 444.412 73.5 447.273 73.5C447.879 73.5 448.46 73.3947 449 73.2013V91H493.9V73.2013C494.44 73.3947 495.021 73.5 495.627 73.5C498.488 73.5 500.808 71.1495 500.808 68.25C500.808 65.3505 498.488 63 495.627 63C495.021 63 494.44 63.1053 493.9 63.2987V45.5H476.336Z" fill="#FF0000"/>
<path d="M516.35 52.5C519.211 52.5 521.531 50.1495 521.531 47.25C521.531 46.6364 521.427 46.0474 521.236 45.5H538.8V63.2987C539.34 63.1053 539.921 63 540.527 63C543.388 63 545.708 65.3505 545.708 68.25C545.708 71.1495 543.388 73.5 540.527 73.5C539.921 73.5 539.34 73.3947 538.8 73.2013V91H493.9V73.2013C494.44 73.3947 495.021 73.5 495.627 73.5C498.488 73.5 500.808 71.1495 500.808 68.25C500.808 65.3505 498.488 63 495.627 63C495.021 63 494.44 63.1053 493.9 63.2987V45.5H511.464C511.273 46.0474 511.169 46.6364 511.169 47.25C511.169 50.1495 513.489 52.5 516.35 52.5Z" fill="#0B06F0"/>
<path d="M561.25 52.5C564.111 52.5 566.431 50.1495 566.431 47.25C566.431 46.6364 566.327 46.0474 566.136 45.5H583.7V63.2987C583.16 63.1053 582.579 63 581.973 63C579.112 63 576.792 65.3505 576.792 68.25C576.792 71.1495 579.112 73.5 581.973 73.5C582.579 73.5 583.16 73.3947 583.7 73.2013V91H538.8V73.2013C539.34 73.3947 539.921 73.5 540.527 73.5C543.388 73.5 545.708 71.1495 545.708 68.25C545.708 65.3505 543.388 63 540.527 63C539.921 63 539.34 63.1053 538.8 63.2987V45.5H556.364C556.173 46.0474 556.069 46.6364 556.069 47.25C556.069 50.1495 558.389 52.5 561.25 52.5Z" fill="#0EF417"/>
<path d="M611.036 45.5C611.227 44.9526 611.331 44.3636 611.331 43.75C611.331 40.8505 609.011 38.5 606.15 38.5C603.289 38.5 600.969 40.8505 600.969 43.75C600.969 44.3636 601.073 44.9526 601.264 45.5H583.7V63.2987C583.16 63.1053 582.579 63 581.973 63C579.112 63 576.792 65.3505 576.792 68.25C576.792 71.1495 579.112 73.5 581.973 73.5C582.579 73.5 583.16 73.3947 583.7 73.2013V91H628.6V73.2013C629.14 73.3947 629.721 73.5 630.327 73.5C633.188 73.5 635.508 71.1495 635.508 68.25C635.508 65.3505 633.188 63 630.327 63C629.721 63 629.14 63.1053 628.6 63.2987V45.5H611.036Z" fill="#E2F410"/>
<path d="M651.05 52.5C653.911 52.5 656.231 50.1495 656.231 47.25C656.231 46.6364 656.127 46.0474 655.936 45.5H673.5V63.2987C674.04 63.1053 674.621 63 675.227 63C678.088 63 680.408 65.3505 680.408 68.25C680.408 71.1495 678.088 73.5 675.227 73.5C674.621 73.5 674.04 73.3947 673.5 73.2013V91H628.6V73.2013C629.14 73.3947 629.721 73.5 630.327 73.5C633.188 73.5 635.508 71.1495 635.508 68.25C635.508 65.3505 633.188 63 630.327 63C629.721 63 629.14 63.1053 628.6 63.2987V45.5H646.164C645.973 46.0474 645.869 46.6364 645.869 47.25C645.869 50.1495 648.189 52.5 651.05 52.5Z" fill="#FF0000"/>
<path d="M700.836 45.5C701.027 44.9526 701.131 44.3636 701.131 43.75C701.131 40.8505 698.811 38.5 695.95 38.5C693.089 38.5 690.769 40.8505 690.769 43.75C690.769 44.3636 690.873 44.9526 691.064 45.5H673.5V63.2987C674.04 63.1053 674.621 63 675.227 63C678.088 63 680.408 65.3505 680.408 68.25C680.408 71.1495 678.088 73.5 675.227 73.5C674.621 73.5 674.04 73.3947 673.5 73.2013V91H718.4V73.2013C717.86 73.3947 717.279 73.5 716.673 73.5C713.812 73.5 711.492 71.1495 711.492 68.25C711.492 65.3505 713.812 63 716.673 63C717.279 63 717.86 63.1053 718.4 63.2987V45.5H700.836Z" fill="#0B06F0"/>
<path d="M745.736 45.5C745.927 44.9526 746.031 44.3636 746.031 43.75C746.031 40.8505 743.711 38.5 740.85 38.5C737.989 38.5 735.669 40.8505 735.669 43.75C735.669 44.3636 735.773 44.9526 735.964 45.5H718.4V63.2987C717.86 63.1053 717.279 63 716.673 63C713.812 63 711.492 65.3505 711.492 68.25C711.492 71.1495 713.812 73.5 716.673 73.5C717.279 73.5 717.86 73.3947 718.4 73.2013V91H763.3V73.2013C763.84 73.3947 764.421 73.5 765.027 73.5C767.888 73.5 770.208 71.1495 770.208 68.25C770.208 65.3505 767.888 63 765.027 63C764.421 63 763.84 63.1053 763.3 63.2987V45.5H745.736Z" fill="#0EF417"/>
<path d="M790.636 45.5C790.827 44.9526 790.931 44.3636 790.931 43.75C790.931 40.8505 788.611 38.5 785.75 38.5C782.889 38.5 780.569 40.8505 780.569 43.75C780.569 44.3636 780.673 44.9526 780.864 45.5H763.3V63.2987C763.84 63.1053 764.421 63 765.027 63C767.888 63 770.208 65.3505 770.208 68.25C770.208 71.1495 767.888 73.5 765.027 73.5C764.421 73.5 763.84 73.3947 763.3 73.2013V91H808.2V73.2013C807.66 73.3947 807.079 73.5 806.473 73.5C803.612 73.5 801.292 71.1495 801.292 68.25C801.292 65.3505 803.612 63 806.473 63C807.079 63 807.66 63.1053 808.2 63.2987V45.5H790.636Z" fill="#E2F410"/>
<path d="M835.536 45.5C835.727 44.9526 835.831 44.3636 835.831 43.75C835.831 40.8505 833.511 38.5 830.65 38.5C827.789 38.5 825.469 40.8505 825.469 43.75C825.469 44.3636 825.573 44.9526 825.764 45.5H808.2V63.2987C807.66 63.1053 807.079 63 806.473 63C803.612 63 801.292 65.3505 801.292 68.25C801.292 71.1495 803.612 73.5 806.473 73.5C807.079 73.5 807.66 73.3947 808.2 73.2013V91H853.1V73.2013C853.64 73.3947 854.221 73.5 854.827 73.5C857.688 73.5 860.008 71.1495 860.008 68.25C860.008 65.3505 857.688 63 854.827 63C854.221 63 853.64 63.1053 853.1 63.2987V45.5H835.536Z" fill="#FF0000"/>
<path d="M880.731 43.75C880.731 44.3636 880.627 44.9526 880.436 45.5H898V91H853.1V73.2013C853.64 73.3947 854.221 73.5 854.827 73.5C857.688 73.5 860.008 71.1495 860.008 68.25C860.008 65.3505 857.688 63 854.827 63C854.221 63 853.64 63.1053 853.1 63.2987V45.5H870.664C870.473 44.9526 870.369 44.3636 870.369 43.75C870.369 40.8505 872.689 38.5 875.55 38.5C878.411 38.5 880.731 40.8505 880.731 43.75Z" fill="#0B06F0"/>
<path d="M0 0H44.9V17.7987C45.4401 17.6053 46.0214 17.5 46.6269 17.5C49.4882 17.5 51.8077 19.8505 51.8077 22.75C51.8077 25.6495 49.4882 28 46.6269 28C46.0214 28 45.4401 27.8947 44.9 27.7013V45.5H27.336C27.5269 44.9526 27.6308 44.3636 27.6308 43.75C27.6308 40.8505 25.3113 38.5 22.45 38.5C19.5887 38.5 17.2692 40.8505 17.2692 43.75C17.2692 44.3636 17.3731 44.9526 17.564 45.5H0V0Z" fill="#FF0000"/>
<path d="M89.8 0H44.9V17.7987C45.4401 17.6053 46.0214 17.5 46.6269 17.5C49.4882 17.5 51.8077 19.8505 51.8077 22.75C51.8077 25.6495 49.4882 28 46.6269 28C46.0214 28 45.4401 27.8947 44.9 27.7013V45.5H62.464C62.2731 44.9526 62.1692 44.3636 62.1692 43.75C62.1692 40.8505 64.4887 38.5 67.35 38.5C70.2113 38.5 72.5308 40.8505 72.5308 43.75C72.5308 44.3636 72.4269 44.9526 72.236 45.5H89.8V27.7013C89.2599 27.8947 88.6786 28 88.0731 28C85.2118 28 82.8923 25.6495 82.8923 22.75C82.8923 19.8505 85.2118 17.5 88.0731 17.5C88.6786 17.5 89.2599 17.6053 89.8 17.7987V0Z" fill="#0B06F0"/>
<path d="M134.7 0H89.8V17.7987C89.2599 17.6053 88.6786 17.5 88.0731 17.5C85.2118 17.5 82.8923 19.8505 82.8923 22.75C82.8923 25.6495 85.2118 28 88.0731 28C88.6786 28 89.2599 27.8947 89.8 27.7013V45.5H107.364C107.173 46.0474 107.069 46.6364 107.069 47.25C107.069 50.1495 109.389 52.5 112.25 52.5C115.111 52.5 117.431 50.1495 117.431 47.25C117.431 46.6364 117.327 46.0474 117.136 45.5H134.7V27.7013C134.16 27.8947 133.579 28 132.973 28C130.112 28 127.792 25.6495 127.792 22.75C127.792 19.8505 130.112 17.5 132.973 17.5C133.579 17.5 134.16 17.6053 134.7 17.7987V0Z" fill="#E2F410"/>
<path d="M179.6 0H134.7V17.7987C134.16 17.6053 133.579 17.5 132.973 17.5C130.112 17.5 127.792 19.8505 127.792 22.75C127.792 25.6495 130.112 28 132.973 28C133.579 28 134.16 27.8947 134.7 27.7013V45.5H152.264C152.073 44.9526 151.969 44.3636 151.969 43.75C151.969 40.8505 154.289 38.5 157.15 38.5C160.011 38.5 162.331 40.8505 162.331 43.75C162.331 44.3636 162.227 44.9526 162.036 45.5H179.6V27.7013C179.06 27.8947 178.479 28 177.873 28C175.012 28 172.692 25.6495 172.692 22.75C172.692 19.8505 175.012 17.5 177.873 17.5C178.479 17.5 179.06 17.6053 179.6 17.7987V0Z" fill="#0EF417"/>
<path d="M224.5 0H179.6V17.7987C179.06 17.6053 178.479 17.5 177.873 17.5C175.012 17.5 172.692 19.8505 172.692 22.75C172.692 25.6495 175.012 28 177.873 28C178.479 28 179.06 27.8947 179.6 27.7013V45.5H197.164C196.973 46.0474 196.869 46.6364 196.869 47.25C196.869 50.1495 199.189 52.5 202.05 52.5C204.911 52.5 207.231 50.1495 207.231 47.25C207.231 46.6364 207.127 46.0474 206.936 45.5H224.5V27.7013C225.04 27.8947 225.621 28 226.227 28C229.088 28 231.408 25.6495 231.408 22.75C231.408 19.8505 229.088 17.5 226.227 17.5C225.621 17.5 225.04 17.6053 224.5 17.7987V0Z" fill="#FF0000"/>
<path d="M269.4 0H224.5V17.7987C225.04 17.6053 225.621 17.5 226.227 17.5C229.088 17.5 231.408 19.8505 231.408 22.75C231.408 25.6495 229.088 28 226.227 28C225.621 28 225.04 27.8947 224.5 27.7013V45.5H242.064C241.873 46.0474 241.769 46.6364 241.769 47.25C241.769 50.1495 244.089 52.5 246.95 52.5C249.811 52.5 252.131 50.1495 252.131 47.25C252.131 46.6364 252.027 46.0474 251.836 45.5H269.4V27.7013C269.94 27.8947 270.521 28 271.127 28C273.988 28 276.308 25.6495 276.308 22.75C276.308 19.8505 273.988 17.5 271.127 17.5C270.521 17.5 269.94 17.6053 269.4 17.7987V0Z" fill="#0B06F0"/>
<path d="M314.3 0H269.4V17.7987C269.94 17.6053 270.521 17.5 271.127 17.5C273.988 17.5 276.308 19.8505 276.308 22.75C276.308 25.6495 273.988 28 271.127 28C270.521 28 269.94 27.8947 269.4 27.7013V45.5H286.964C286.773 44.9526 286.669 44.3636 286.669 43.75C286.669 40.8505 288.989 38.5 291.85 38.5C294.711 38.5 297.031 40.8505 297.031 43.75C297.031 44.3636 296.927 44.9526 296.736 45.5H314.3V27.7013C313.76 27.8947 313.179 28 312.573 28C309.712 28 307.392 25.6495 307.392 22.75C307.392 19.8505 309.712 17.5 312.573 17.5C313.179 17.5 313.76 17.6053 314.3 17.7987V0Z" fill="#E2F410"/>
<path d="M359.2 0H314.3V17.7987C313.76 17.6053 313.179 17.5 312.573 17.5C309.712 17.5 307.392 19.8505 307.392 22.75C307.392 25.6495 309.712 28 312.573 28C313.179 28 313.76 27.8947 314.3 27.7013V45.5H331.864C331.673 46.0474 331.569 46.6364 331.569 47.25C331.569 50.1495 333.889 52.5 336.75 52.5C339.611 52.5 341.931 50.1495 341.931 47.25C341.931 46.6364 341.827 46.0474 341.636 45.5H359.2V27.7013C358.66 27.8947 358.079 28 357.473 28C354.612 28 352.292 25.6495 352.292 22.75C352.292 19.8505 354.612 17.5 357.473 17.5C358.079 17.5 358.66 17.6053 359.2 17.7987V0Z" fill="#0EF417"/>
<path d="M404.1 0H359.2V17.7987C358.66 17.6053 358.079 17.5 357.473 17.5C354.612 17.5 352.292 19.8505 352.292 22.75C352.292 25.6495 354.612 28 357.473 28C358.079 28 358.66 27.8947 359.2 27.7013V45.5H376.764C376.573 46.0474 376.469 46.6364 376.469 47.25C376.469 50.1495 378.789 52.5 381.65 52.5C384.511 52.5 386.831 50.1495 386.831 47.25C386.831 46.6364 386.727 46.0474 386.536 45.5H404.1V27.7013C404.64 27.8947 405.221 28 405.827 28C408.688 28 411.008 25.6495 411.008 22.75C411.008 19.8505 408.688 17.5 405.827 17.5C405.221 17.5 404.64 17.6053 404.1 17.7987V0Z" fill="#FF0000"/>
<path d="M449 0H404.1V17.7987C404.64 17.6053 405.221 17.5 405.827 17.5C408.688 17.5 411.008 19.8505 411.008 22.75C411.008 25.6495 408.688 28 405.827 28C405.221 28 404.64 27.8947 404.1 27.7013V45.5H421.664C421.473 44.9526 421.369 44.3636 421.369 43.75C421.369 40.8505 423.689 38.5 426.55 38.5C429.411 38.5 431.731 40.8505 431.731 43.75C431.731 44.3636 431.627 44.9526 431.436 45.5H449V27.7013C448.46 27.8947 447.879 28 447.273 28C444.412 28 442.092 25.6495 442.092 22.75C442.092 19.8505 444.412 17.5 447.273 17.5C447.879 17.5 448.46 17.6053 449 17.7987V0Z" fill="#0B06F0"/>
<path d="M493.9 0H449V17.7987C448.46 17.6053 447.879 17.5 447.273 17.5C444.412 17.5 442.092 19.8505 442.092 22.75C442.092 25.6495 444.412 28 447.273 28C447.879 28 448.46 27.8947 449 27.7013V45.5H466.564C466.373 44.9526 466.269 44.3636 466.269 43.75C466.269 40.8505 468.589 38.5 471.45 38.5C474.311 38.5 476.631 40.8505 476.631 43.75C476.631 44.3636 476.527 44.9526 476.336 45.5H493.9V27.7013C494.44 27.8947 495.021 28 495.627 28C498.488 28 500.808 25.6495 500.808 22.75C500.808 19.8505 498.488 17.5 495.627 17.5C495.021 17.5 494.44 17.6053 493.9 17.7987V0Z" fill="#E2F410"/>
<path d="M538.8 0H493.9V17.7987C494.44 17.6053 495.021 17.5 495.627 17.5C498.488 17.5 500.808 19.8505 500.808 22.75C500.808 25.6495 498.488 28 495.627 28C495.021 28 494.44 27.8947 493.9 27.7013V45.5H511.464C511.273 46.0474 511.169 46.6364 511.169 47.25C511.169 50.1495 513.489 52.5 516.35 52.5C519.211 52.5 521.531 50.1495 521.531 47.25C521.531 46.6364 521.427 46.0474 521.236 45.5H538.8V27.7013C539.34 27.8947 539.921 28 540.527 28C543.388 28 545.708 25.6495 545.708 22.75C545.708 19.8505 543.388 17.5 540.527 17.5C539.921 17.5 539.34 17.6053 538.8 17.7987V0Z" fill="#0EF417"/>
<path d="M583.7 0H538.8V17.7987C539.34 17.6053 539.921 17.5 540.527 17.5C543.388 17.5 545.708 19.8505 545.708 22.75C545.708 25.6495 543.388 28 540.527 28C539.921 28 539.34 27.8947 538.8 27.7013V45.5H556.364C556.173 46.0474 556.069 46.6364 556.069 47.25C556.069 50.1495 558.389 52.5 561.25 52.5C564.111 52.5 566.431 50.1495 566.431 47.25C566.431 46.6364 566.327 46.0474 566.136 45.5H583.7V27.7013C583.16 27.8947 582.579 28 581.973 28C579.112 28 576.792 25.6495 576.792 22.75C576.792 19.8505 579.112 17.5 581.973 17.5C582.579 17.5 583.16 17.6053 583.7 17.7987V0Z" fill="#FF0000"/>
<path d="M628.6 0H583.7V17.7987C583.16 17.6053 582.579 17.5 581.973 17.5C579.112 17.5 576.792 19.8505 576.792 22.75C576.792 25.6495 579.112 28 581.973 28C582.579 28 583.16 27.8947 583.7 27.7013V45.5H601.264C601.073 46.0474 600.969 46.6364 600.969 47.25C600.969 50.1495 603.289 52.5 606.15 52.5C609.011 52.5 611.331 50.1495 611.331 47.25C611.331 46.6364 611.227 46.0474 611.036 45.5H628.6V27.7013C629.14 27.8947 629.721 28 630.327 28C633.188 28 635.508 25.6495 635.508 22.75C635.508 19.8505 633.188 17.5 630.327 17.5C629.721 17.5 629.14 17.6053 628.6 17.7987V0Z" fill="#0B06F0"/>
<path d="M673.5 0H628.6V17.7987C629.14 17.6053 629.721 17.5 630.327 17.5C633.188 17.5 635.508 19.8505 635.508 22.75C635.508 25.6495 633.188 28 630.327 28C629.721 28 629.14 27.8947 628.6 27.7013V45.5H646.164C645.973 46.0474 645.869 46.6364 645.869 47.25C645.869 50.1495 648.189 52.5 651.05 52.5C653.911 52.5 656.231 50.1495 656.231 47.25C656.231 46.6364 656.127 46.0474 655.936 45.5H673.5V27.7013C672.96 27.8947 672.379 28 671.773 28C668.912 28 666.592 25.6495 666.592 22.75C666.592 19.8505 668.912 17.5 671.773 17.5C672.379 17.5 672.96 17.6053 673.5 17.7987V0Z" fill="#E2F410"/>
<path d="M718.4 0H673.5V17.7987C672.96 17.6053 672.379 17.5 671.773 17.5C668.912 17.5 666.592 19.8505 666.592 22.75C666.592 25.6495 668.912 28 671.773 28C672.379 28 672.96 27.8947 673.5 27.7013V45.5H691.064C690.873 46.0474 690.769 46.6364 690.769 47.25C690.769 50.1495 693.089 52.5 695.95 52.5C698.811 52.5 701.131 50.1495 701.131 47.25C701.131 46.6364 701.027 46.0474 700.836 45.5H718.4V27.7013C718.94 27.8947 719.521 28 720.127 28C722.988 28 725.308 25.6495 725.308 22.75C725.308 19.8505 722.988 17.5 720.127 17.5C719.521 17.5 718.94 17.6053 718.4 17.7987V0Z" fill="#0EF417"/>
<path d="M763.3 0H718.4V17.7987C718.94 17.6053 719.521 17.5 720.127 17.5C722.988 17.5 725.308 19.8505 725.308 22.75C725.308 25.6495 722.988 28 720.127 28C719.521 28 718.94 27.8947 718.4 27.7013V45.5H735.964C735.773 44.9526 735.669 44.3636 735.669 43.75C735.669 40.8505 737.989 38.5 740.85 38.5C743.711 38.5 746.031 40.8505 746.031 43.75C746.031 44.3636 745.927 44.9526 745.736 45.5H763.3V27.7013C762.76 27.8947 762.179 28 761.573 28C758.712 28 756.392 25.6495 756.392 22.75C756.392 19.8505 758.712 17.5 761.573 17.5C762.179 17.5 762.76 17.6053 763.3 17.7987V0Z" fill="#FF0000"/>
<path d="M808.2 0H763.3V17.7987C762.76 17.6053 762.179 17.5 761.573 17.5C758.712 17.5 756.392 19.8505 756.392 22.75C756.392 25.6495 758.712 28 761.573 28C762.179 28 762.76 27.8947 763.3 27.7013V45.5H780.864C780.673 44.9526 780.569 44.3636 780.569 43.75C780.569 40.8505 782.889 38.5 785.75 38.5C788.611 38.5 790.931 40.8505 790.931 43.75C790.931 44.3636 790.827 44.9526 790.636 45.5H808.2V27.7013C808.74 27.8947 809.321 28 809.927 28C812.788 28 815.108 25.6495 815.108 22.75C815.108 19.8505 812.788 17.5 809.927 17.5C809.321 17.5 808.74 17.6053 808.2 17.7987V0Z" fill="#0B06F0"/>
<path d="M853.1 0H808.2V17.7987C808.74 17.6053 809.321 17.5 809.927 17.5C812.788 17.5 815.108 19.8505 815.108 22.75C815.108 25.6495 812.788 28 809.927 28C809.321 28 808.74 27.8947 808.2 27.7013V45.5H825.764C825.573 44.9526 825.469 44.3636 825.469 43.75C825.469 40.8505 827.789 38.5 830.65 38.5C833.511 38.5 835.831 40.8505 835.831 43.75C835.831 44.3636 835.727 44.9526 835.536 45.5H853.1V27.7013C853.64 27.8947 854.221 28 854.827 28C857.688 28 860.008 25.6495 860.008 22.75C860.008 19.8505 857.688 17.5 854.827 17.5C854.221 17.5 853.64 17.6053 853.1 17.7987V0Z" fill="#E2F410"/>
<path d="M853.1 0H898V45.5H880.436C880.627 46.0474 880.731 46.6364 880.731 47.25C880.731 50.1495 878.411 52.5 875.55 52.5C872.689 52.5 870.369 50.1495 870.369 47.25C870.369 46.6364 870.473 46.0474 870.664 45.5H853.1V27.7013C853.64 27.8947 854.221 28 854.827 28C857.688 28 860.008 25.6495 860.008 22.75C860.008 19.8505 857.688 17.5 854.827 17.5C854.221 17.5 853.64 17.6053 853.1 17.7987V0Z" fill="#0EF417"/>
</g>
</svg>
