<svg width="320" height="240" viewBox="0 0 320 240" fill="none" xmlns="http://www.w3.org/2000/svg">
<path fill-rule="evenodd" clip-rule="evenodd" d="M0 0H320V240H0V0Z" fill="#229E45"/>
<path fill-rule="evenodd" clip-rule="evenodd" d="M160.7 218L311.45 120.15L159.8 22L8.55 120.35L160.7 218Z" fill="#F8E509"/>
<path fill-rule="evenodd" clip-rule="evenodd" d="M226.4 120C226.4 155.15 197.85 183.65 162.6 183.65C150.003 183.63 137.696 179.876 127.232 172.863C116.769 165.849 108.62 155.89 103.815 144.246C99.011 132.602 97.7667 119.795 100.24 107.443C102.713 95.0918 108.793 83.751 117.71 74.8544C126.628 65.9578 137.983 59.9048 150.34 57.4607C162.697 55.0166 175.502 56.291 187.135 61.1229C198.768 65.9548 208.707 74.1272 215.696 84.607C222.685 95.0868 226.41 107.403 226.4 120Z" fill="#2B49A3"/>
<path fill-rule="evenodd" clip-rule="evenodd" d="M141.65 158.15L139.65 157L137.65 158L138.1 155.75L136.5 154.05L138.75 153.8L139.85 151.8L140.8 153.9L143 154.3L141.35 155.8M184.35 168.95L182.4 167.8L180.4 168.8L180.8 166.55L179.25 164.9L181.5 164.65L182.55 162.6L183.55 164.7L185.75 165.1L184.05 166.65M165.95 151.65L164.25 150.65L162.5 151.55L162.9 149.6L161.5 148.15L163.5 147.95L164.4 146.15L165.2 148L167.15 148.35L165.65 149.7M209.15 145.45L207.45 144.45L205.7 145.35L206.1 143.4L204.75 142L206.7 141.8L207.6 140.05L208.4 141.85L210.3 142.2L208.85 143.5M165.2 132.5L163.2 131.4L161.2 132.4L161.6 130.1L160.05 128.45L162.3 128.2L163.35 126.15L164.35 128.25L166.55 128.65L164.85 130.25M112.55 112.75L110.55 111.65L108.55 112.65L109.05 110.35L107.4 108.7L109.7 108.45L110.7 106.4L111.7 108.5L113.9 108.9L112.25 110.45M118.9 139.05L116.9 137.9L114.9 138.9L115.35 136.65L113.75 135L116 134.7L117.05 132.7L118.05 134.8L120.25 135.2L118.6 136.75M184.6 103.1L182.8 102.1L181 103L181.4 101L180 99.5L182 99.25L182.95 97.45L183.8 99.35L185.8 99.7L184.3 101.05M180.95 120.2L179.6 119.4L178.15 120.1L178.45 118.5L177.35 117.35L178.95 117.15L179.7 115.75L180.35 117.25L181.85 117.5L180.75 118.6M109.65 143.8L108.3 143.05L106.95 143.7L107.25 142.2L106.2 141.1L107.7 140.9L108.4 139.55L109.05 140.95L110.55 141.25L109.4 142.25M209.5 149.9L208.4 149.35L207.3 149.85L207.55 148.7L206.7 147.9L207.9 147.75L208.5 146.75L209 147.75L210.25 148L209.3 148.75" fill="#FFFFEF"/>
<path fill-rule="evenodd" clip-rule="evenodd" d="M109.65 143.8L108.3 143.05L106.95 143.7L107.25 142.2L106.2 141.1L107.7 140.9L108.4 139.55L109.05 140.95L110.55 141.25L109.4 142.25" fill="#FFFFEF"/>
<path fill-rule="evenodd" clip-rule="evenodd" d="M109.65 143.8L108.3 143.05L106.95 143.7L107.25 142.2L106.2 141.1L107.7 140.9L108.4 139.55L109.05 140.95L110.55 141.25L109.4 142.25M130.55 143.75L129.25 143.05L127.9 143.7L128.2 142.2L127.15 141.1L128.65 140.9L129.35 139.55L130 140.95L131.5 141.2L130.35 142.25M127.95 150.75L126.65 150L125.3 150.7L125.6 149.2L124.55 148.05L126.05 147.85L126.75 146.5L127.4 147.9L128.9 148.2L127.75 149.2M171.45 138.1L170.15 137.3L168.75 138L169.05 136.5L168.05 135.35L169.55 135.2L170.25 133.85L170.85 135.25L172.35 135.5L171.25 136.55M158.7 138.05L157.35 137.3L156 138L156.3 136.5L155.3 135.35L156.8 135.2L157.5 133.8L158.1 135.25L159.6 135.5L158.5 136.55M124.1 133.65L123.25 133.15L122.4 133.55L122.6 132.6L121.95 131.9L122.9 131.8L123.3 130.95L123.7 131.85L124.65 132L123.95 132.65M207.85 155.35L206.55 154.6L205.2 155.3L205.5 153.8L204.45 152.65L205.95 152.45L206.65 151.1L207.3 152.5L208.8 152.8L207.65 153.8M197.25 156.8L196.15 156.1L195 156.7L195.25 155.4L194.4 154.5L195.65 154.35L196.25 153.2L196.75 154.4L198 154.6L197.05 155.5M202.25 156.65L201.25 156.05L200.2 156.55L200.4 155.4L199.6 154.55L200.75 154.4L201.3 153.4L201.8 154.4L202.95 154.65L202.1 155.45M216.65 144.05L215.65 143.55L214.65 144.05L214.9 142.9L214.1 142.05L215.25 141.9L215.75 140.9L216.25 141.95L217.3 142.15L216.5 142.95M197.1 163.85L195.85 163.15L194.5 163.75L194.8 162.35L193.8 161.35L195.3 161.2L195.95 159.95L196.55 161.25L198.05 161.5L196.9 162.45M197.2 169.55L196 168.85L194.8 169.5L195.1 168.1L194.15 167.1L195.5 166.9L196.1 165.65L196.65 166.95L198 167.2L197 168.2M187.5 156.65L186.55 156.05L185.55 156.55L185.75 155.45L185 154.6L186.1 154.5L186.6 153.5L187.1 154.5L188.2 154.7L187.4 155.5M178.5 156.65L177.5 156.05L176.5 156.55L176.75 155.45L175.95 154.6L177.1 154.5L177.6 153.5L178.1 154.5L179.15 154.7L178.35 155.5M163.15 143.2L162.15 142.65L161.15 143.15L161.4 142L160.6 141.2L161.7 141.05L162.2 140.05L162.7 141.05L163.8 141.3L163 142.05M164.85 170.55L164.05 170.1L163.15 170.55L163.35 169.55L162.7 168.85L163.65 168.75L164.1 167.9L164.5 168.8L165.45 168.95L164.75 169.6M141.65 126.3L139.65 125.15L137.65 126.15L138.1 123.9L136.5 122.25L138.75 121.95L139.85 119.95L140.8 122.05L143 122.45L141.35 124" fill="#FFFFEF"/>
<path fill-rule="evenodd" clip-rule="evenodd" d="M222.2 142.9C223.439 139.686 224.409 136.374 225.1 133C191.2 103.25 153.45 88 105.75 91.15C104.02 94.4975 102.597 97.9952 101.5 101.6C158 96.2 199.5 121.2 222.2 142.9Z" fill="white"/>
<path d="M207 126.2L208.15 126.85C207.978 127.19 207.925 127.577 208 127.95C208.117 128.312 208.367 128.616 208.7 128.8C209.05 129.05 209.4 129.2 209.7 129.15C210 129.15 210.2 129 210.35 128.8C210.437 128.667 210.473 128.507 210.45 128.35C210.409 128.165 210.323 127.994 210.2 127.85C210.1 127.7 209.85 127.35 209.45 126.95C209.039 126.526 208.731 126.012 208.55 125.45C208.425 125.024 208.458 124.568 208.641 124.164C208.825 123.76 209.147 123.436 209.55 123.25C209.914 123.098 210.316 123.063 210.7 123.15C211.17 123.258 211.613 123.463 212 123.75C212.7 124.25 213.15 124.75 213.3 125.35C213.369 125.631 213.378 125.923 213.326 126.207C213.275 126.491 213.163 126.762 213 127L211.8 126.25C211.95 125.95 212 125.65 211.9 125.4C211.85 125.15 211.65 124.9 211.3 124.7C211.043 124.493 210.729 124.371 210.4 124.35C210.309 124.347 210.22 124.369 210.14 124.413C210.061 124.457 209.995 124.521 209.95 124.6C209.85 124.75 209.85 124.9 209.9 125.1C209.95 125.3 210.2 125.7 210.7 126.2C211.2 126.7 211.5 127.15 211.7 127.45C211.879 127.778 211.959 128.15 211.933 128.522C211.906 128.894 211.773 129.251 211.55 129.55C211.316 129.89 210.985 130.151 210.6 130.3C210.225 130.473 209.806 130.525 209.4 130.45C208.95 130.35 208.5 130.15 208 129.8C207.25 129.3 206.8 128.75 206.65 128.15C206.487 127.47 206.595 126.753 206.95 126.15L207 126.2ZM201.2 122.4L202.45 123.05C202.295 123.395 202.26 123.782 202.35 124.15C202.478 124.493 202.727 124.778 203.05 124.95C203.45 125.2 203.75 125.3 204.05 125.25C204.35 125.25 204.55 125.1 204.7 124.85C204.776 124.731 204.811 124.591 204.8 124.45C204.8 124.3 204.7 124.1 204.55 123.95C204.294 123.641 204.027 123.341 203.75 123.05C203.2 122.5 202.85 122.05 202.75 121.65C202.668 121.393 202.644 121.121 202.678 120.853C202.713 120.585 202.806 120.328 202.95 120.1C203.14 119.791 203.419 119.547 203.75 119.4C204.094 119.242 204.477 119.189 204.85 119.25C205.312 119.328 205.755 119.498 206.15 119.75C206.9 120.25 207.35 120.75 207.5 121.3C207.591 121.581 207.62 121.878 207.586 122.172C207.551 122.465 207.454 122.748 207.3 123L206.05 122.3C206.2 121.95 206.25 121.7 206.15 121.45C206.05 121.2 205.85 120.95 205.5 120.75C205.223 120.551 204.891 120.446 204.55 120.45C204.468 120.456 204.388 120.481 204.319 120.525C204.249 120.568 204.191 120.629 204.15 120.7C204.05 120.85 204.05 121 204.1 121.2C204.15 121.4 204.45 121.8 204.95 122.3C205.45 122.8 205.8 123.2 205.95 123.5C206.15 123.814 206.257 124.178 206.257 124.55C206.257 124.922 206.15 125.286 205.95 125.6C205.735 125.949 205.422 126.227 205.05 126.4C204.675 126.573 204.256 126.625 203.85 126.55C203.335 126.463 202.843 126.276 202.4 126C201.754 125.655 201.256 125.086 201 124.4C200.807 123.732 200.878 123.016 201.2 122.4ZM194.1 120.5L197.75 114.5L202.15 117.25L201.55 118.25L198.35 116.25L197.55 117.6L200.55 119.45L199.9 120.45L196.9 118.6L195.9 120.25L199.25 122.25L198.65 123.25L194.1 120.5ZM183.75 112L184.3 111L187 112.35L185.75 114.85C185.35 114.95 184.85 115 184.25 114.95C183.674 114.886 183.114 114.717 182.6 114.45C181.995 114.155 181.478 113.707 181.1 113.15C180.756 112.633 180.581 112.021 180.6 111.4C180.625 110.754 180.796 110.121 181.1 109.55C181.4 108.949 181.848 108.433 182.4 108.05C182.928 107.685 183.557 107.492 184.2 107.5C184.7 107.5 185.2 107.65 185.8 108C186.6 108.35 187.1 108.85 187.35 109.4C187.61 109.946 187.663 110.568 187.5 111.15L186.15 110.75C186.233 110.415 186.197 110.062 186.05 109.75C185.9 109.45 185.65 109.25 185.25 109.05C185.017 108.917 184.758 108.835 184.491 108.809C184.224 108.783 183.954 108.814 183.7 108.9C183.2 109.05 182.75 109.5 182.4 110.2C182.05 110.9 181.9 111.55 182.05 112.1C182.119 112.361 182.244 112.603 182.417 112.811C182.59 113.018 182.806 113.185 183.05 113.3C183.3 113.45 183.6 113.55 183.9 113.55C184.198 113.595 184.502 113.595 184.8 113.55L185.2 112.75L183.75 112ZM138.65 100.85L139.65 93.85L141.75 94.2L142.3 99.1L144.25 94.6L146.35 94.9L145.35 101.8L144 101.6L144.85 96.15L142.65 101.4L141.3 101.2L140.75 95.55L139.95 101.05L138.65 100.85ZM131.6 100L132.25 93L137.4 93.5L137.3 94.7L133.55 94.35L133.4 95.85L136.9 96.2L136.75 97.4L133.25 97.05L133.1 98.95L137 99.3L136.9 100.5L131.6 100Z" fill="#309E3A"/>
<path d="M108.25 95.65C108.25 94.9 108.4 94.35 108.6 93.85C108.775 93.4944 109.012 93.1728 109.3 92.9C109.556 92.6413 109.863 92.4372 110.2 92.3C110.7 92.15 111.2 92.05 111.7 92.05C112.75 92.05 113.55 92.45 114.2 93.05C114.509 93.4322 114.74 93.8723 114.877 94.3445C115.014 94.8166 115.056 95.3115 115 95.8C115 96.9 114.65 97.8 114 98.45C113.666 98.7587 113.271 98.9939 112.84 99.1403C112.41 99.2868 111.953 99.3412 111.5 99.3C111.053 99.3045 110.61 99.2182 110.197 99.0463C109.785 98.8744 109.411 98.6205 109.1 98.3C108.478 97.5636 108.172 96.6109 108.25 95.65Z" fill="#309E3A"/>
<path d="M109.7 95.65C109.7 96.4 109.85 97 110.2 97.45C110.55 97.85 111 98.1 111.6 98.1C111.86 98.1182 112.12 98.0782 112.362 97.9831C112.604 97.8879 112.822 97.74 113 97.55C113.35 97.15 113.5 96.55 113.55 95.7C113.55 94.9 113.45 94.3 113.05 93.9C112.887 93.6985 112.682 93.5356 112.448 93.4232C112.215 93.3108 111.959 93.2516 111.7 93.25C111.437 93.2416 111.175 93.291 110.933 93.3946C110.692 93.4983 110.475 93.6537 110.3 93.85C109.9 94.25 109.75 94.85 109.7 95.65Z" fill="#F7FFFF"/>
<path d="M116.5 99.25L116.6 92.25H119.6C120.35 92.25 120.85 92.35 121.2 92.5C121.55 92.6 121.8 92.85 122 93.15C122.2 93.45 122.3 93.85 122.3 94.3C122.304 94.781 122.125 95.2456 121.8 95.6C121.43 95.9462 120.955 96.1576 120.45 96.2L121.2 96.8C121.4 97 121.65 97.4 121.95 97.95L122.8 99.35H121.1L120.1 97.75L119.4 96.75C119.279 96.6124 119.124 96.509 118.95 96.45C118.723 96.3837 118.487 96.35 118.25 96.35H117.95V99.25H116.5Z" fill="#309E3A"/>
<path d="M118 95.25H119C119.7 95.25 120.15 95.25 120.3 95.15C120.45 95.15 120.6 95 120.7 94.9C120.8 94.8 120.85 94.55 120.85 94.4C120.85 94.1 120.8 93.9 120.65 93.8C120.55 93.65 120.35 93.55 120.15 93.5H119.15L118 93.45V95.25Z" fill="white"/>
<path d="M124.5 92.6L127.1 92.75C127.65 92.75 128.1 92.8 128.4 92.9C128.789 93.0412 129.134 93.2827 129.4 93.6C129.688 93.9496 129.893 94.3598 130 94.8C130.15 95.25 130.2 95.8 130.15 96.45C130.15 96.9603 130.065 97.4671 129.9 97.95C129.7 98.45 129.4 98.85 129.05 99.15C128.759 99.39 128.417 99.561 128.05 99.65C127.75 99.75 127.3 99.75 126.8 99.75L124.15 99.6L124.5 92.6Z" fill="#309E3A"/>
<path d="M125.85 93.85L125.6 98.5H127.5C127.75 98.5 127.95 98.4 128.1 98.25C128.25 98.1 128.4 97.9 128.5 97.6C128.6 97.3 128.7 96.85 128.7 96.3L128.65 95.05C128.579 94.7864 128.441 94.5454 128.25 94.35C128.084 94.183 127.877 94.0623 127.65 94C127.272 93.9158 126.887 93.8656 126.5 93.85H125.85Z" fill="white"/>
<path d="M158.8 105.1L160.45 98.3L162.65 98.8L164.25 99.3C164.6 99.5 164.9 99.8 165.05 100.25C165.25 100.65 165.25 101.1 165.15 101.65C165.05 102.05 164.9 102.4 164.65 102.65C164.467 102.87 164.237 103.046 163.978 103.167C163.719 103.288 163.436 103.35 163.15 103.35C162.8 103.35 162.3 103.25 161.65 103.1L160.8 102.85L160.2 105.45L158.8 105.1Z" fill="#309E3A"/>
<path d="M161.5 99.8L161.1 101.7L161.85 101.9C162.35 102 162.75 102.1 162.95 102.05C163.145 102.023 163.326 101.936 163.469 101.802C163.612 101.668 163.711 101.492 163.75 101.3C163.75 101.05 163.75 100.85 163.65 100.65C163.54 100.447 163.364 100.288 163.15 100.2L162.2 99.95L161.55 99.8H161.5Z" fill="white"/>
<path d="M165.3 107.05L167.65 100.45L170.4 101.45C171.15 101.7 171.6 101.95 171.9 102.15C172.15 102.4 172.35 102.65 172.4 103.05C172.45 103.45 172.5 103.8 172.4 104.2C172.2 104.7 171.9 105.05 171.5 105.3C171.1 105.5 170.6 105.55 170 105.45C170.2 105.7 170.4 105.95 170.5 106.25L170.9 107.6L171.2 109.15L169.65 108.6L169.15 106.8C169.059 106.393 168.942 105.992 168.8 105.6C168.734 105.444 168.631 105.307 168.5 105.2C168.4 105.05 168.2 104.95 167.85 104.85L167.6 104.75L166.6 107.55L165.3 107.05Z" fill="#309E3A"/>
<path d="M168 103.7L168.95 104.05C169.6 104.3 170 104.4 170.2 104.4C170.35 104.4 170.5 104.4 170.65 104.25C170.8 104.15 170.9 104 170.95 103.8C171.05 103.6 171.05 103.4 170.95 103.2C170.876 103.006 170.734 102.846 170.55 102.75L168.55 102.05L167.95 103.7H168Z" fill="white"/>
<path d="M173.5 106.8C173.672 106.215 173.961 105.67 174.35 105.2C174.603 104.898 174.908 104.644 175.25 104.45C175.56 104.275 175.899 104.156 176.25 104.1C176.75 104.1 177.25 104.1 177.8 104.3C178.247 104.411 178.665 104.615 179.027 104.899C179.389 105.184 179.687 105.542 179.9 105.95C180.3 106.75 180.3 107.7 180 108.8C179.753 109.745 179.141 110.554 178.3 111.05C177.55 111.5 176.65 111.55 175.7 111.25C175.254 111.136 174.837 110.931 174.476 110.647C174.114 110.363 173.816 110.006 173.6 109.6C173.4 109.163 173.288 108.69 173.271 108.21C173.253 107.729 173.331 107.25 173.5 106.8Z" fill="#309E3A"/>
<path d="M174.9 107.2C174.7 107.95 174.65 108.6 174.9 109.1C175.15 109.6 175.5 109.9 176.05 110.1C176.55 110.25 177.05 110.2 177.55 109.9C178.05 109.65 178.35 109.1 178.6 108.3C178.85 107.55 178.85 106.95 178.6 106.45C178.501 106.213 178.352 106 178.161 105.827C177.971 105.655 177.746 105.526 177.5 105.45C177.254 105.365 176.992 105.335 176.734 105.36C176.475 105.386 176.224 105.468 176 105.6C175.5 105.9 175.15 106.4 174.9 107.2Z" fill="white"/>
<path d="M187.15 116.55L190.35 110.35L193 111.7C193.5 111.94 193.956 112.261 194.35 112.65C194.6 112.9 194.75 113.2 194.75 113.6C194.75 114 194.75 114.35 194.55 114.7C194.358 115.15 194 115.508 193.55 115.7C193.05 115.8 192.55 115.8 192 115.6C192.2 115.9 192.3 116.2 192.4 116.45C192.5 116.75 192.55 117.2 192.6 117.85L192.7 119.45L191.2 118.7L191 116.85C190.976 116.431 190.926 116.013 190.85 115.6C190.816 115.413 190.729 115.24 190.6 115.1L190 114.75L189.75 114.6L188.4 117.2L187.15 116.55Z" fill="#309E3A"/>
<path d="M190.25 113.6L191.2 114.1C191.8 114.4 192.2 114.6 192.35 114.6C192.5 114.6 192.7 114.6 192.85 114.5C193 114.45 193.1 114.3 193.2 114.1C193.3 113.9 193.35 113.7 193.3 113.5C193.238 113.301 193.116 113.126 192.95 113C192.657 112.821 192.357 112.654 192.05 112.5L191.05 112L190.25 113.6Z" fill="white"/>
<path d="M213.05 129.35C213.374 128.836 213.799 128.393 214.3 128.05C214.636 127.835 215.009 127.682 215.4 127.6C215.763 127.526 216.137 127.526 216.5 127.6C217 127.7 217.45 127.9 217.9 128.2C218.289 128.442 218.623 128.763 218.882 129.142C219.14 129.521 219.316 129.949 219.4 130.4C219.55 131.25 219.3 132.2 218.7 133.15C218.198 133.976 217.389 134.57 216.45 134.8C216.002 134.897 215.539 134.898 215.091 134.803C214.643 134.708 214.22 134.52 213.85 134.25C213.461 134.008 213.127 133.687 212.868 133.308C212.61 132.929 212.434 132.501 212.35 132.05C212.2 131.15 212.45 130.25 213.05 129.35Z" fill="#309E3A"/>
<path d="M214.3 130.15C213.8 130.8 213.65 131.4 213.75 131.95C213.787 132.203 213.877 132.446 214.015 132.661C214.153 132.877 214.335 133.06 214.55 133.2C215.05 133.55 215.55 133.65 216.05 133.5C216.55 133.35 217.05 133 217.5 132.3C217.95 131.6 218.15 131 218.05 130.5C218 130 217.7 129.55 217.25 129.2C216.8 128.85 216.25 128.8 215.75 128.95C215.25 129.05 214.75 129.45 214.25 130.15H214.3Z" fill="white"/>
<path d="M150.9 102.25L152.05 97.35L155.65 98.2L155.5 99L152.85 98.4L152.6 99.5L155.05 100.05L154.85 100.9L152.4 100.3L152.1 101.65L154.85 102.3L154.65 103.1L150.9 102.25Z" fill="#309E3A"/>
</svg>
