<svg width="531" height="47" viewBox="0 0 531 47" fill="none" xmlns="http://www.w3.org/2000/svg">
<path d="M45 46H0L16.3153 1H28.5L45 46Z" fill="black"/>
<path d="M59.336 46.512C56.136 46.512 53.6827 45.4027 51.976 43.184C50.2693 40.9653 49.416 37.8933 49.416 33.968L49.608 14.192H54.28L54.088 33.392C54.0453 36.1653 54.536 38.32 55.56 39.856C56.584 41.392 58.2053 42.16 60.424 42.16C62.6 42.16 64.52 41.2853 66.184 39.536C67.848 37.7867 69.1493 34.8853 70.088 30.832C71.0693 26.736 71.5813 21.1893 71.624 14.192H76.104V46H71.368L71.752 35.568C70.5573 39.3227 68.872 42.096 66.696 43.888C64.52 45.6373 62.0667 46.512 59.336 46.512Z" fill="black"/>
<path d="M97.771 46.512C94.1443 46.512 91.4137 45.552 89.579 43.632C87.7443 41.6693 86.8483 39.0667 86.891 35.824L87.083 18.16H81.451V14.192H87.147L87.211 7.536H91.883L91.819 14.192H102.891V18.16H91.755L91.563 35.504C91.563 37.552 92.075 39.1947 93.099 40.432C94.1657 41.6693 95.8083 42.288 98.027 42.288C99.0083 42.288 99.9257 42.1813 100.779 41.968C101.632 41.712 102.528 41.2213 103.467 40.496L105.003 44.208C104.064 45.0187 102.955 45.616 101.675 46C100.395 46.3413 99.0937 46.512 97.771 46.512Z" fill="black"/>
<path d="M113.845 14.192V46H109.238V14.192H113.845ZM111.67 6.96C110.646 6.96 109.856 6.64 109.301 6C108.747 5.36 108.469 4.61333 108.469 3.76C108.469 2.90667 108.747 2.16 109.301 1.52C109.899 0.879997 110.688 0.559998 111.67 0.559998C112.651 0.559998 113.419 0.879997 113.974 1.52C114.571 2.16 114.869 2.90667 114.869 3.76C114.869 4.61333 114.571 5.36 113.974 6C113.419 6.64 112.651 6.96 111.67 6.96Z" fill="black"/>
<path d="M133.665 46.512C129.697 46.512 126.625 45.7013 124.449 44.08C122.273 42.416 121.014 40.0693 120.673 37.04L124.769 36.08C125.068 38.3413 125.921 40.0053 127.329 41.072C128.78 42.1387 130.892 42.672 133.665 42.672C136.012 42.672 137.782 42.2027 138.977 41.264C140.214 40.2827 140.833 39.024 140.833 37.488C140.833 36.0373 140.214 34.9707 138.977 34.288C137.74 33.5627 135.798 32.944 133.153 32.432C130.934 32.0053 129.036 31.472 127.457 30.832C125.878 30.1493 124.662 29.2107 123.809 28.016C122.956 26.8213 122.529 25.2213 122.529 23.216C122.529 21.424 123.02 19.8027 124.001 18.352C124.982 16.9013 126.326 15.7707 128.033 14.96C129.782 14.1067 131.745 13.68 133.921 13.68C136.908 13.68 139.34 14.4053 141.217 15.856C143.137 17.264 144.31 19.2267 144.737 21.744L140.769 22.768C140.129 19.2693 137.825 17.52 133.857 17.52C131.809 17.52 130.166 18.032 128.929 19.056C127.734 20.0373 127.137 21.3813 127.137 23.088C127.137 24.496 127.67 25.6267 128.737 26.48C129.804 27.2907 131.724 27.9947 134.497 28.592C136.758 29.0613 138.7 29.616 140.321 30.256C141.942 30.8533 143.18 31.6853 144.033 32.752C144.929 33.8187 145.398 35.2907 145.441 37.168C145.441 38.96 144.95 40.56 143.969 41.968C142.988 43.376 141.601 44.4853 139.809 45.296C138.06 46.1067 136.012 46.512 133.665 46.512Z" fill="black"/>
<path d="M152.363 46V14.192H157.098L156.715 25.136C157.867 21.2107 159.53 18.3093 161.706 16.432C163.925 14.5547 166.378 13.616 169.066 13.616C171.84 13.616 174.08 14.448 175.786 16.112C177.493 17.776 178.539 20.2933 178.923 23.664C180.117 20.2933 181.824 17.776 184.043 16.112C186.304 14.448 188.736 13.616 191.339 13.616C194.581 13.616 197.056 14.7467 198.762 17.008C200.512 19.2693 201.365 22.5333 201.323 26.8L201.195 46H196.523L196.65 27.376C196.736 21.104 194.581 17.968 190.186 17.968C188.736 17.968 187.349 18.416 186.027 19.312C184.704 20.208 183.509 21.7227 182.443 23.856C181.419 25.9467 180.608 28.8053 180.01 32.432C179.413 36.0587 179.115 40.5813 179.115 46H174.507V27.376C174.507 24.2187 173.995 21.872 172.971 20.336C171.989 18.7573 170.389 17.968 168.171 17.968C166.677 17.968 165.269 18.416 163.947 19.312C162.624 20.208 161.429 21.7227 160.363 23.856C159.339 25.9467 158.507 28.8053 157.867 32.432C157.269 36.0587 156.971 40.5813 156.971 46H152.363Z" fill="black"/>
<path d="M283.136 46.512C278.229 46.512 274.368 45.104 271.552 42.288C268.779 39.472 267.392 35.5467 267.392 30.512C267.392 27.2267 268.053 24.304 269.376 21.744C270.699 19.184 272.491 17.2 274.752 15.792C277.056 14.3413 279.659 13.616 282.56 13.616C286.912 13.616 290.261 15.1307 292.608 18.16C294.997 21.1893 295.851 25.712 295.168 31.728H272.192C272.32 35.1413 273.344 37.744 275.264 39.536C277.227 41.328 279.957 42.224 283.456 42.224C285.163 42.224 286.805 41.8613 288.384 41.136C289.963 40.368 291.307 39.1947 292.416 37.616L295.36 40.304C292.501 44.4427 288.427 46.512 283.136 46.512ZM282.624 17.392C280.661 17.392 278.933 17.8613 277.44 18.8C275.989 19.7387 274.816 21.0187 273.92 22.64C273.024 24.2187 272.469 25.9893 272.256 27.952H291.072C291.243 24.24 290.517 21.552 288.896 19.888C287.275 18.224 285.184 17.392 282.624 17.392Z" fill="black"/>
<path d="M303.05 46V14.192H307.786L307.402 25.136C308.554 21.2107 310.218 18.3093 312.394 16.432C314.613 14.5547 317.066 13.616 319.754 13.616C322.527 13.616 324.767 14.448 326.474 16.112C328.181 17.776 329.226 20.2933 329.61 23.664C330.805 20.2933 332.511 17.776 334.73 16.112C336.991 14.448 339.423 13.616 342.026 13.616C345.269 13.616 347.743 14.7467 349.45 17.008C351.199 19.2693 352.053 22.5333 352.01 26.8L351.882 46H347.21L347.338 27.376C347.423 21.104 345.269 17.968 340.874 17.968C339.423 17.968 338.037 18.416 336.714 19.312C335.391 20.208 334.197 21.7227 333.13 23.856C332.106 25.9467 331.295 28.8053 330.698 32.432C330.101 36.0587 329.802 40.5813 329.802 46H325.194V27.376C325.194 24.2187 324.682 21.872 323.658 20.336C322.677 18.7573 321.077 17.968 318.858 17.968C317.365 17.968 315.957 18.416 314.634 19.312C313.311 20.208 312.117 21.7227 311.05 23.856C310.026 25.9467 309.194 28.8053 308.554 32.432C307.957 36.0587 307.658 40.5813 307.658 46H303.05Z" fill="black"/>
<path d="M415.835 4.784H395.674V21.488H415.259V25.712H395.674V46H390.81V0.559998H415.835V4.784Z" fill="black"/>
<path d="M478.554 46.512C473.903 46.512 470.255 45.1253 467.61 42.352C464.965 39.536 463.642 35.632 463.642 30.64C463.642 27.2693 464.303 24.304 465.626 21.744C466.949 19.184 468.783 17.2 471.13 15.792C473.477 14.3413 476.207 13.616 479.322 13.616C484.442 13.616 488.197 15.664 490.586 19.76L487.002 22.448C485.295 19.4187 482.693 17.904 479.194 17.904C475.994 17.904 473.413 19.0773 471.45 21.424C469.53 23.728 468.57 26.8 468.57 30.64C468.57 34.3947 469.445 37.2533 471.194 39.216C472.943 41.1787 475.461 42.16 478.746 42.16C480.495 42.16 482.095 41.7973 483.546 41.072C484.997 40.3467 486.191 39.1947 487.13 37.616L490.586 40.304C488.026 44.4427 484.015 46.512 478.554 46.512Z" fill="black"/>
<path d="M241 28.5C241 38.165 233.165 46 223.5 46C213.835 46 206 38.165 206 28.5C206 18.835 213.835 11 223.5 11C233.165 11 241 18.835 241 28.5Z" fill="black"/>
<path d="M531 28.5C531 38.165 523.165 46 513.5 46C503.835 46 496 38.165 496 28.5C496 18.835 503.835 11 513.5 11C523.165 11 531 18.835 531 28.5Z" fill="black"/>
<path d="M457 28.5C457 38.165 449.165 46 439.5 46C429.835 46 422 38.165 422 28.5C422 18.835 429.835 11 439.5 11C449.165 11 457 18.835 457 28.5Z" fill="black"/>
<path d="M516.727 19.8182C516.727 21.3244 515.506 22.5455 514 22.5455C512.494 22.5455 511.273 21.3244 511.273 19.8182C511.273 19.1197 511.535 18.4825 511.967 18H504V25.9672C504.483 25.5353 505.12 25.2727 505.818 25.2727C507.324 25.2727 508.545 26.4938 508.545 28C508.545 29.5062 507.324 30.7273 505.818 30.7273C505.12 30.7273 504.483 30.4647 504 30.0328V38H511.967C511.535 37.5175 511.273 36.8803 511.273 36.1818C511.273 34.6756 512.494 33.4545 514 33.4545C515.506 33.4545 516.727 34.6756 516.727 36.1818C516.727 36.8803 516.465 37.5175 516.033 38H524V30.0328C523.517 30.4647 522.88 30.7273 522.182 30.7273C520.676 30.7273 519.455 29.5062 519.455 28C519.455 26.4938 520.676 25.2727 522.182 25.2727C522.88 25.2727 523.517 25.5353 524 25.9672V18H516.033C516.465 18.4825 516.727 19.1197 516.727 19.8182Z" fill="#0B06F0"/>
<path d="M438.148 23.7037C439.375 23.7037 440.37 22.7088 440.37 21.4815C440.37 20.9123 440.156 20.3932 439.805 20H446.296V26.4918C446.689 26.1399 447.209 25.9259 447.778 25.9259C449.005 25.9259 450 26.9208 450 28.1481C450 29.3754 449.005 30.3704 447.778 30.3704C447.209 30.3704 446.689 30.1564 446.296 29.8045V36.2963H439.805C440.156 36.6894 440.37 37.2086 440.37 37.7778C440.37 39.0051 439.375 40 438.148 40C436.921 40 435.926 39.0051 435.926 37.7778C435.926 37.2086 436.14 36.6894 436.492 36.2963H430V29.8045C430.393 30.1564 430.912 30.3704 431.481 30.3704C432.709 30.3704 433.704 29.3754 433.704 28.1481C433.704 26.9208 432.709 25.9259 431.481 25.9259C430.912 25.9259 430.393 26.1399 430 26.4918V20H436.492C436.14 20.3932 435.926 20.9123 435.926 21.4815C435.926 22.7088 436.921 23.7037 438.148 23.7037Z" fill="#0EF417"/>
<path d="M25.2361 24C25.7111 23.4692 26 22.7684 26 22C26 20.3431 24.6569 19 23 19C21.3431 19 20 20.3431 20 22C20 22.7684 20.2889 23.4692 20.7639 24H12V32.7639C12.5308 32.2889 13.2316 32 14 32C15.6569 32 17 33.3431 17 35C17 36.6569 15.6569 38 14 38C13.2316 38 12.5308 37.7111 12 37.2361V46H34V37.2361C33.4692 37.7111 32.7684 38 32 38C30.3431 38 29 36.6569 29 35C29 33.3431 30.3431 32 32 32C32.7684 32 33.4692 32.2889 34 32.7639V24H25.2361Z" fill="#FF0000"/>
<path d="M226.074 20.2222C226.074 20.7914 225.86 21.3106 225.508 21.7037H232V28.1955C231.607 27.8436 231.088 27.6296 230.519 27.6296C229.291 27.6296 228.296 28.6246 228.296 29.8519C228.296 31.0792 229.291 32.0741 230.519 32.0741C231.088 32.0741 231.607 31.8601 232 31.5082V38H215.704V31.5082C215.311 31.8601 214.791 32.0741 214.222 32.0741C212.995 32.0741 212 31.0792 212 29.8519C212 28.6246 212.995 27.6296 214.222 27.6296C214.791 27.6296 215.311 27.8436 215.704 28.1955V21.7037H222.195C221.844 21.3106 221.63 20.7914 221.63 20.2222C221.63 18.9949 222.625 18 223.852 18C225.079 18 226.074 18.9949 226.074 20.2222Z" fill="#E2F410"/>
</svg>
